<svg xmlns="http://www.w3.org/2000/svg" width="800" height="480" viewBox="0 0 800 480">
  <defs>
    <linearGradient id="bg" x1="0" y1="0" x2="1" y2="1">
      <stop offset="0%" stop-color="#f8fafc"/>
      <stop offset="100%" stop-color="#e2e8f0"/>
    </linearGradient>
  </defs>
  <rect width="800" height="480" rx="28" fill="url(#bg)"/>
  <rect x="40" y="40" width="720" height="400" rx="20" fill="#ffffff"/>
  <rect x="40" y="40" width="720" height="64" rx="20" fill="#0b1324"/>
  <circle cx="72" cy="72" r="8" fill="#f2b53b"/>
  <circle cx="96" cy="72" r="8" fill="#94a3b8"/>
  <circle cx="120" cy="72" r="8" fill="#64748b"/>
  <text x="160" y="78" font-size="18" fill="#f8fafc" font-family="Arial, sans-serif">Control de inversion</text>
  <rect x="70" y="130" width="210" height="40" rx="10" fill="#f1f5f9"/>
  <rect x="70" y="190" width="660" height="34" rx="10" fill="#f8fafc"/>
  <rect x="70" y="240" width="660" height="34" rx="10" fill="#f8fafc"/>
  <rect x="70" y="290" width="660" height="34" rx="10" fill="#f8fafc"/>
  <rect x="70" y="340" width="420" height="20" rx="10" fill="#0b1324"/>
  <rect x="70" y="370" width="280" height="20" rx="10" fill="#d6b35a"/>
</svg>
