<svg xmlns="http://www.w3.org/2000/svg" width="800" height="480" viewBox="0 0 800 480">
  <defs>
    <linearGradient id="bg" x1="0" y1="0" x2="1" y2="1">
      <stop offset="0%" stop-color="#f8fafc"/>
      <stop offset="100%" stop-color="#e2e8f0"/>
    </linearGradient>
  </defs>
  <rect width="800" height="480" rx="28" fill="url(#bg)"/>
  <rect x="40" y="40" width="720" height="400" rx="20" fill="#ffffff"/>
  <rect x="40" y="40" width="720" height="64" rx="20" fill="#0b1324"/>
  <circle cx="72" cy="72" r="8" fill="#f2b53b"/>
  <circle cx="96" cy="72" r="8" fill="#94a3b8"/>
  <circle cx="120" cy="72" r="8" fill="#64748b"/>
  <text x="160" y="78" font-size="18" fill="#f8fafc" font-family="Arial, sans-serif">Rentabilidad anual</text>
  <rect x="70" y="130" width="230" height="40" rx="10" fill="#f1f5f9"/>
  <rect x="70" y="200" width="210" height="160" rx="18" fill="#f8fafc"/>
  <rect x="90" y="226" width="150" height="20" rx="10" fill="#0b1324"/>
  <text x="90" y="256" font-size="14" fill="#64748b" font-family="Arial, sans-serif">Rentabilidad total</text>
  <text x="90" y="286" font-size="22" fill="#0b1324" font-family="Arial, sans-serif">18,4 % anual</text>
  <rect x="320" y="200" width="410" height="160" rx="18" fill="#f8fafc"/>
  <rect x="350" y="300" width="40" height="50" rx="8" fill="#94a3b8"/>
  <rect x="410" y="280" width="40" height="70" rx="8" fill="#0b1324"/>
  <rect x="470" y="260" width="40" height="90" rx="8" fill="#d6b35a"/>
  <rect x="530" y="240" width="40" height="110" rx="8" fill="#0b1324"/>
  <rect x="590" y="220" width="40" height="130" rx="8" fill="#d6b35a"/>
  <rect x="650" y="250" width="40" height="100" rx="8" fill="#94a3b8"/>
  <polyline points="350,320 410,300 470,275 530,255 590,235 650,265" fill="none" stroke="#0b1324" stroke-width="4"/>
  <circle cx="350" cy="320" r="5" fill="#0b1324"/>
  <circle cx="410" cy="300" r="5" fill="#0b1324"/>
  <circle cx="470" cy="275" r="5" fill="#0b1324"/>
  <circle cx="530" cy="255" r="5" fill="#0b1324"/>
  <circle cx="590" cy="235" r="5" fill="#0b1324"/>
  <circle cx="650" cy="265" r="5" fill="#0b1324"/>
</svg>
